PathFileType	4	(X/Y/Z)	G:\TennisProject\Miami_Dimitrov_Sinner_masked_Sports2D\Miami_Dimitrov_Sinner_masked_Sports2D_px_person02.trc
DataRate	CameraRate	NumFrames	NumMarkers	Units	OrigDataRate	OrigDataStartFrame	OrigNumFrames
25	25	12	22	m	25	374	499
Frame#	Time	Hip			RHip			RKnee			RAnkle			RBigToe			RSmallToe			RHeel			LHip			LKnee			LAnkle			LBigToe			LSmallToe			LHeel			Neck			Head			Nose			RShoulder			RElbow			RWrist			LShoulder			LElbow			LWrist		
		X1	Y1	Z1	X2	Y2	Z2	X3	Y3	Z3	X4	Y4	Z4	X5	Y5	Z5	X6	Y6	Z6	X7	Y7	Z7	X8	Y8	Z8	X9	Y9	Z9	X10	Y10	Z10	X11	Y11	Z11	X12	Y12	Z12	X13	Y13	Z13	X14	Y14	Z14	X15	Y15	Z15	X16	Y16	Z16	X17	Y17	Z17	X18	Y18	Z18	X19	Y19	Z19	X20	Y20	Z20	X21	Y21	Z21	X22	Y22	Z22
374	14.96	1323.951540862586	174.10340973973126	0.0	1318.0691868825393	175.12384491507592	0.0	1316.072323816323	195.71770681907236	0.0	1313.906339435041	217.80961829307572	0.0	1314.4169410440306	222.20532558867222	0.0	1311.4559792056734	222.30119130677005	0.0	1314.08846023236	220.33021438618562	0.0	1329.087796073171	175.28000809319695	0.0	1329.0726113298665	195.8595273232905	0.0	1328.5989392718507	218.09305304922884	0.0	1329.9296008086908	222.28056369516992	0.0	1331.6996599411423	221.9936917131708	0.0	1326.828331019094	220.87098509160583	0.0	1325.1543515515648	143.62702469554304	0.0	1325.5015709631916	130.02641987348593	0.0	1325.435084018345	137.57182964324852	0.0	1314.9488360203998	148.96705469401869	0.0	1312.1746675336349	161.8069387939141	0.0	1319.74676608071	166.5996156420113	0.0	1334.6967395217023	149.39098169488113	0.0	1335.9022854441646	162.15884329202748	0.0	1328.856764913953	166.9043155267143	0.0
375	15.0	1323.932966024027	174.1335935222291	0.0	1318.0972010467424	174.97628299519914	0.0	1316.0319084972996	195.74173694803136	0.0	1313.894542782259	217.93269272181638	0.0	1314.3815674194484	222.09162466898314	0.0	1311.4882725775285	222.2261894087726	0.0	1314.0454285851463	220.44908627847983	0.0	1328.9985873881133	175.28678980386294	0.0	1329.1053488843413	195.9305350676609	0.0	1328.6581261576468	218.13862235647517	0.0	1329.902225021417	222.16886633330068	0.0	1331.7916519071018	221.82828389899265	0.0	1326.7773745819366	220.76071622306387	0.0	1325.1152534910248	143.70929755824412	0.0	1325.553103510833	130.08702002620532	0.0	1325.2650790582938	137.68050667627767	0.0	1315.0116533796092	148.9948931922397	0.0	1312.3326539244638	161.78369364843283	0.0	1319.80795562815	166.74472089020583	0.0	1334.6536328826212	149.46630349007782	0.0	1335.9354681163763	162.2488220048837	0.0	1328.7975030606272	167.0002077521237	0.0
376	15.040000000000001	1323.8690381841602	174.16821630163162	0.0	1318.0423571616238	174.9067625854608	0.0	1315.9938608771386	195.7253131798172	0.0	1313.8980091450164	217.95547863977134	0.0	1314.2383022111899	222.0122173950296	0.0	1311.4391929037192	222.09213762492791	0.0	1313.9499760955455	220.58092351944478	0.0	1328.927933929004	175.38121953002513	0.0	1329.2367703178581	195.99296201304458	0.0	1328.6817571442161	218.03695793407212	0.0	1329.7693990203759	221.98591314775487	0.0	1331.8472485436064	221.60998111948695	0.0	1326.818193729638	220.58023240605013	0.0	1325.1002807465093	143.78510678734796	0.0	1325.622245872772	130.1031070349218	0.0	1325.1244839224328	137.78128309220344	0.0	1315.0594789614133	149.0018329147679	0.0	1312.4793580368678	161.78330647436087	0.0	1319.8824508793334	166.85618449877882	0.0	1334.7097774939064	149.52195169491435	0.0	1335.932316335629	162.30717936885935	0.0	1328.7187580138375	167.11199213230083	0.0
377	15.08	1323.712514738243	174.29263557507988	0.0	1317.7790178096138	175.1471931908374	0.0	1315.9309338045048	195.63501924335375	0.0	1313.706389018912	217.75026433950455	0.0	1313.9697570889027	222.04046601164242	0.0	1311.1926348648371	222.04425783912853	0.0	1313.8620949282517	220.49039889510743	0.0	1328.860237345235	175.5558735165887	0.0	1329.1965569038148	195.91144711984956	0.0	1328.6055473615265	217.82413011148117	0.0	1329.7332611003962	221.9879283409714	0.0	1331.7340816228627	221.73434452752696	0.0	1326.8838021039128	220.67124900296514	0.0	1324.9868834515664	143.6464181143874	0.0	1325.5435523895528	130.07055804039675	0.0	1325.1461184896777	137.65242448239565	0.0	1314.925520860152	148.93566932443915	0.0	1312.2495143801887	161.71278205817856	0.0	1319.778152947041	166.87282840673674	0.0	1334.7284111335903	149.40112164310273	0.0	1335.8613185381396	162.25166395255675	0.0	1328.7475695341843	167.21529344796676	0.0
378	15.120000000000001	1323.520632045595	174.36081747462043	0.0	1317.5492650990273	175.2770380629011	0.0	1315.7942176300323	195.58623109963372	0.0	1313.5228515227489	217.63264654700058	0.0	1313.799957672869	222.0456963221618	0.0	1310.9918412671016	222.0318384423857	0.0	1313.8012262546004	220.36732038835538	0.0	1328.7939162723837	175.5684988348419	0.0	1329.0102566774685	195.78633481212688	0.0	1328.5003452409978	217.7389604873926	0.0	1329.679960362019	222.02320739816557	0.0	1331.5912197249081	221.94326269132966	0.0	1326.9078050021792	220.82489225829673	0.0	1324.8555197141955	143.5121133929561	0.0	1325.427531542423	130.0373507153166	0.0	1325.2031007384785	137.54755217803125	0.0	1314.7667012655133	148.92115678659758	0.0	1311.9584877710533	161.62185225597239	0.0	1319.6730781702367	166.74259208471284	0.0	1334.688711690811	149.27569601383846	0.0	1335.8116833396036	162.18248131834488	0.0	1328.7802064413675	167.1635993312986	0.0
379	15.16	1323.4535840532506	174.2804797734371	0.0	1317.5675217975456	175.1048024698969	0.0	1315.6706652995301	195.67548521680445	0.0	1313.5665729064178	217.8294561260916	0.0	1313.8106250191213	221.99005789492708	0.0	1310.9551539388824	221.9888721599316	0.0	1313.71304583402	220.50780615132481	0.0	1328.7393115533155	175.41772044728185	0.0	1328.9173766106396	195.81871412060306	0.0	1328.4585560838286	217.88934846366553	0.0	1329.5513615845264	221.92021123860445	0.0	1331.5759081344777	221.8831299009223	0.0	1326.8514327668959	220.73728426501506	0.0	1324.853926814451	143.6221369763516	0.0	1325.3820221216035	130.02767203030467	0.0	1325.1237603935033	137.6772844911423	0.0	1314.753819675947	148.96643787603708	0.0	1311.999867073735	161.6331208097893	0.0	1319.7757496084348	166.59396598215318	0.0	1334.6856954987793	149.28381825901	0.0	1335.8267358651026	162.23591917842407	0.0	1328.6918957878815	166.99360557157735	0.0
380	15.200000000000001	1323.484678368778	174.26743267971125	0.0	1317.6578981384848	175.02658232112282	0.0	1315.6272770037708	195.74991776666283	0.0	1313.5608540826831	217.9631100370834	0.0	1313.734015196546	221.92072936172906	0.0	1310.8333241598045	221.92526037263332	0.0	1313.505490879431	220.67676070281	0.0	1328.6481343169417	175.391512433243	0.0	1328.9331468527084	195.92286773061483	0.0	1328.4656237246704	218.0486407793581	0.0	1329.4885230651214	221.81745891322709	0.0	1331.6340721216907	221.7327236590628	0.0	1326.7700197363886	220.57698759996066	0.0	1324.9066873958059	143.76446111237664	0.0	1325.339819976029	129.9953213363961	0.0	1325.0182971565598	137.81103081500774	0.0	1314.770372146197	148.93496503183053	0.0	1312.1592097229807	161.7020132148921	0.0	1319.881694973056	166.56652056171288	0.0	1334.689947244713	149.29478259664452	0.0	1335.7594352690953	162.33166247505724	0.0	1328.5545748808827	166.91780269326867	0.0
381	15.24	1323.4287974966064	174.40490355785641	0.0	1317.5455336115099	175.20532989781174	0.0	1315.5215340443838	195.64939923192918	0.0	1313.2817518151064	217.6997194523413	0.0	1313.5368780726064	221.85598793730014	0.0	1310.5701348916148	221.8546438074608	0.0	1313.3031088088806	220.49280803038144	0.0	1328.4844306564412	175.5342155982109	0.0	1328.8807849968455	195.8438680535191	0.0	1328.427930201171	217.97700106536925	0.0	1329.4881093341007	221.85808226244424	0.0	1331.6274750809823	221.72265571700245	0.0	1326.7901348536234	220.59617973414998	0.0	1324.8161295494842	143.65053642931997	0.0	1325.231377716772	129.91761274250914	0.0	1325.0709355625268	137.71394693850016	0.0	1314.7079899833623	148.85952549990284	0.0	1312.1115697070509	161.73834221716086	0.0	1319.751079060612	166.58592815741454	0.0	1334.5469982961604	149.2563692285243	0.0	1335.469108676796	162.34492371617134	0.0	1328.4213213276178	167.01066785946676	0.0
382	15.280000000000001	1323.3183519179152	174.45186079721523	0.0	1317.3447746912277	175.3047207194348	0.0	1315.365862769056	195.5211337688835	0.0	1313.0440448229242	217.43634659683448	0.0	1313.4476414477406	221.85002361841754	0.0	1310.423917181645	221.83542961124	0.0	1313.3089030555084	220.25636114847035	0.0	1328.3583921962763	175.59171671545414	0.0	1328.7983675752632	195.6753244630584	0.0	1328.3544291307476	217.84473490017618	0.0	1329.4627107139554	221.97136299609681	0.0	1331.5733772889605	221.74047872084077	0.0	1326.8691139940406	220.6983632290971	0.0	1324.6411810260875	143.44103649952135	0.0	1325.1262659309473	129.87189201196784	0.0	1325.1176426580191	137.55455752398694	0.0	1314.6678717621066	148.90328706192508	0.0	1311.9761174025891	161.7596733975278	0.0	1319.631312886058	166.52252051316975	0.0	1334.338273746439	149.31714239418545	0.0	1335.175457500422	162.31018472522732	0.0	1328.2682581535325	167.0992313317334	0.0
383	15.32	1323.3137623345576	174.35636491604305	0.0	1317.3781544003782	175.17430670326456	0.0	1315.4437143555194	195.5896272416993	0.0	1313.1430408581252	217.61536985060366	0.0	1313.4159093131402	221.91848172967994	0.0	1310.4787019362182	221.92269720897576	0.0	1313.427037498023	220.4318958756962	0.0	1328.3782141734716	175.50028316305827	0.0	1328.8401562848585	195.70784105833715	0.0	1328.3753312459326	217.98110660402853	0.0	1329.5054586808765	222.0703112061114	0.0	1331.6421463335198	221.74055283900182	0.0	1326.8655662052781	220.74406002870734	0.0	1324.6437241969238	143.44315663271263	0.0	1325.1072060557976	129.93000211077992	0.0	1324.943133435887	137.5826748887119	0.0	1314.7052582188344	149.05544093462186	0.0	1311.9188397229627	161.8036490859095	0.0	1319.7133740549216	166.4794046172185	0.0	1334.3074514688615	149.52223035710148	0.0	1335.1619441712742	162.31729031763842	0.0	1328.183003680313	167.01931632276415	0.0
384	15.36	1323.3543460098922	174.3337230467217	0.0	1317.5379361827333	175.0342252254498	0.0	1315.7003254081644	195.72235259558022	0.0	1313.3542309986767	217.91149379661607	0.0	1313.3811714910398	221.9719880412647	0.0	1310.6111099258574	222.05645775727834	0.0	1313.4905895191891	220.7140084554199	0.0	1328.428489586083	175.40030593292732	0.0	1328.8978841244048	195.86357860671697	0.0	1328.5034161601761	218.2562324277228	0.0	1329.7174846167982	222.1620722808159	0.0	1331.8510147073466	221.86581446905504	0.0	1326.8252092524945	220.8107150221992	0.0	1324.7799379415203	143.54702080011404	0.0	1325.1292196319746	130.000993751823	0.0	1324.7311924725855	137.6336928972666	0.0	1314.7380407171513	149.13292073166033	0.0	1311.7687270711788	161.81397254083316	0.0	1319.652936907085	166.52668632417007	0.0	1334.381910519258	149.68690074650902	0.0	1335.2499269899515	162.38811590811022	0.0	1328.2395437186651	166.84081712860356	0.0
385	15.4	1323.29738121613	174.41168192775427	0.0	1317.4769567434712	174.9960307764671	0.0	1315.7602282144323	195.6609351596334	0.0	1313.3780304283246	217.8957640829663	0.0	1313.4707609314723	221.98469849956575	0.0	1310.7346030133044	222.11846967922475	0.0	1313.536274750616	220.62053116320598	0.0	1328.3645882811347	175.32266451467018	0.0	1328.8335950126198	195.88691556859655	0.0	1328.5966505094002	218.2950737868383	0.0	1329.9630222576795	222.24760494938795	0.0	1331.9903341323222	222.05850581702333	0.0	1326.8524039139634	220.9286565631171	0.0	1324.7760023263804	143.50670547252608	0.0	1325.105394916712	129.96339795539518	0.0	1324.708172623959	137.49251628573862	0.0	1314.7086940946006	149.07620814893474	0.0	1311.4643488040028	161.7227390723169	0.0	1319.2708327185	166.5172204963849	0.0	1334.3121279588247	149.66765240162692	0.0	1335.1595087211165	162.47842793429814	0.0	1328.3174018200493	166.7381375319465	0.0
